<?xml version="1.0" encoding="utf-8"?>
<!-- Generator: Adobe Illustrator 20.1.0, SVG Export Plug-In . SVG Version: 6.00 Build 0)  -->
<svg version="1.1" xmlns="http://www.w3.org/2000/svg" xmlns:xlink="http://www.w3.org/1999/xlink" x="0px" y="0px"
	 viewBox="0 0 728.6 259.8" style="enable-background:new 0 0 728.6 259.8;" xml:space="preserve">
<style type="text/css">
	.st0{fill:#9551FC;}
	.st1{fill:#F6BB42;}
	.st2{fill:#5D9CEC;}
	.st3{fill:#48CFAD;}
	.st4{fill:none;}
	.st5{fill:#FFFFFF;}
	.st6{font-family:'OpenSans-Semibold';}
	.st7{font-size:8px;}
	.st8{opacity:0.45;fill:#FFFFFF;enable-background:new    ;}
	.st9{font-family:'Futura-CondensedExtraBold';}
	.st10{font-size:61px;}
	.st11{fill:#37BC9B;stroke:#F5F6F7;stroke-width:10;stroke-miterlimit:10;}
	.st12{enable-background:new    ;}
	.st13{font-family:'OpenSans-CondensedBold';}
	.st14{font-size:9px;}
</style>
<g id="Layer_1">
	<g>
		<path class="st0" d="M450.9,0.1c-71.7,0-130,58.3-130,129.9h86.7c0-23.9,19.4-43.3,43.3-43.3s43.3,19.4,43.3,43.3h86.7
			C580.8,58.4,522.6,0.1,450.9,0.1z"/>
		<path class="st1" d="M320.9,129.9c0,23.9-19.4,43.3-43.3,43.3s-43.3-19.4-43.3-43.3h-86.6c0,71.7,58.3,130,130,130
			s129.9-58.3,129.9-130L320.9,129.9z"/>
		<path class="st2" d="M494.3,129.9c0,23.9-19.4,43.3-43.3,43.3s-43.3-19.4-43.3-43.3h-86.8c0,71.7,58.3,130,130,130
			s129.9-58.3,129.9-130l-43.3-10L494.3,129.9z"/>
		<path class="st3" d="M277.7,0.1c-71.7,0-130,58.3-130,129.9h86.7c0-23.9,19.4-43.3,43.3-43.3c23.9,0,43.3,19.4,43.3,43.3l43.3,9.8
			l43.3-9.8C407.6,58.4,349.3,0.1,277.7,0.1z"/>
	</g>
	<path class="st4" d="M450.9,0.1c-71.7,0-130,58.3-130,129.9h86.7c0-23.9,19.4-43.3,43.3-43.3s43.3,19.4,43.3,43.3l43.3-0.1
		l43.3,0.1C580.8,58.4,522.5,0.1,450.9,0.1z"/>
	<g id="background">
	</g>
	<path class="st4" d="M407.5,130c0-23.9,19.4-43.3,43.3-43.3s43.3,19.4,43.3,43.3h86.8c0-71.7-58.3-130-130-130S321,58.3,321,130
		L407.5,130z"/>
	<text transform="matrix(1 0 0 1 427.8371 18.6799)"><tspan x="0" y="0" class="st5 st6 st7">Food</tspan><tspan x="19" y="0" class="st5 st6 st7"> </tspan><tspan x="21.3" y="0" class="st5 st6 st7">&amp;</tspan><tspan x="27.2" y="0" class="st5 st6 st7"> </tspan><tspan x="29.5" y="0" class="st5 st6 st7">beverage</tspan><tspan x="30.5" y="12.6" class="st5 st6 st7">Request</tspan><tspan x="61.9" y="12.6" class="st5 st6 st7"> </tspan><tspan x="64.2" y="12.6" class="st5 st6 st7">items</tspan><tspan x="24.9" y="25.2" class="st5 st6 st7">Dining</tspan><tspan x="49.8" y="25.2" class="st5 st6 st7"> </tspan><tspan x="52.1" y="25.2" class="st5 st6 st7">reservations</tspan><tspan x="56.9" y="37.8" class="st5 st6 st7">Local</tspan><tspan x="76.9" y="37.8" class="st5 st6 st7"> </tspan><tspan x="79.2" y="37.8" class="st5 st6 st7">weather</tspan></text>
	<path class="st4" d="M321.1,129.9c0,23.9-19.4,43.3-43.3,43.3s-43.3-19.4-43.3-43.3h-86.8c0,71.7,58.3,130,130,130
		s129.9-58.3,129.9-130L321.1,129.9z"/>
	<text transform="matrix(1 0 0 1 182.6068 198.9303)"><tspan x="0" y="0" class="st5 st6 st7">Luggage</tspan><tspan x="32" y="0" class="st5 st6 st7"> </tspan><tspan x="34.3" y="0" class="st5 st6 st7">assistance</tspan><tspan x="9" y="12.6" class="st5 st6 st7">Check-out</tspan><tspan x="20.7" y="25.2" class="st5 st6 st7">Request</tspan><tspan x="52.1" y="25.2" class="st5 st6 st7"> </tspan><tspan x="54.4" y="25.2" class="st5 st6 st7">Uber</tspan><tspan x="36.1" y="37.8" class="st5 st6 st7">Digital</tspan><tspan x="60.9" y="37.8" class="st5 st6 st7"> </tspan><tspan x="63.2" y="37.8" class="st5 st6 st7">folio</tspan></text>
	<path class="st4" d="M450.9,259.8c71.7,0,130-58.3,130-129.9h-86.7c0,23.9-19.4,43.3-43.3,43.3s-43.3-19.4-43.3-43.3l-43.3,0.1
		l-43.3-0.1C321,201.5,379.3,259.8,450.9,259.8z"/>
	<text transform="matrix(1 0 0 1 355.9488 198.9805)"><tspan x="0" y="0" class="st5 st6 st7">Check-in on the go</tspan><tspan x="9" y="12.6" class="st5 st6 st7">Room ready notification</tspan><tspan x="20.7" y="25.2" class="st5 st6 st7">Hotel directions</tspan><tspan x="36.2" y="37.8" class="st5 st6 st7">Hotel activities &amp; amenities</tspan></text>
	<path class="st4" d="M277.7,0.1c-71.7,0-130,58.3-130,129.9h86.7c0-23.9,19.4-43.3,43.3-43.3c23.9,0,43.3,19.4,43.3,43.3l43.3-0.1
		l43.3,0.1C407.6,58.4,349.3,0.1,277.7,0.1z"/>
	<text transform="matrix(1 0 0 1 241.8622 18.7301)"><tspan x="0" y="0" class="st5 st6 st7">Search</tspan><tspan x="26.1" y="0" class="st5 st6 st7"> </tspan><tspan x="28.4" y="0" class="st5 st6 st7">hotels</tspan><tspan x="52.3" y="0" class="st5 st6 st7"> </tspan><tspan x="54.6" y="0" class="st5 st6 st7">&amp;</tspan><tspan x="60.5" y="0" class="st5 st6 st7"> </tspan><tspan x="62.8" y="0" class="st5 st6 st7">info</tspan><tspan x="-14.5" y="12.6" class="st5 st6 st7">Explore</tspan><tspan x="14.5" y="12.6" class="st5 st6 st7"> </tspan><tspan x="16.8" y="12.6" class="st5 st6 st7">hotels</tspan><tspan x="40.6" y="12.6" class="st5 st6 st7"> </tspan><tspan x="42.9" y="12.6" class="st5 st6 st7">in</tspan><tspan x="50.2" y="12.6" class="st5 st6 st7"> </tspan><tspan x="52.5" y="12.6" class="st5 st6 st7">8</tspan><tspan x="57.1" y="12.6" class="st5 st6 st7"> </tspan><tspan x="59.4" y="12.6" class="st5 st6 st7">languages</tspan><tspan x="13.7" y="25.2" class="st5 st6 st7">Get</tspan><tspan x="27.3" y="25.2" class="st5 st6 st7"> </tspan><tspan x="29.6" y="25.2" class="st5 st6 st7">rates</tspan><tspan x="49.3" y="25.2" class="st5 st6 st7"> </tspan><tspan x="51.6" y="25.2" class="st5 st6 st7">in</tspan><tspan x="58.9" y="25.2" class="st5 st6 st7"> </tspan><tspan x="61.2" y="25.2" class="st5 st6 st7">57</tspan><tspan x="70.3" y="25.2" class="st5 st6 st7"> </tspan><tspan x="72.6" y="25.2" class="st5 st6 st7">currencies</tspan><tspan x="49.1" y="37.8" class="st5 st6 st7">Worldwide</tspan><tspan x="90.6" y="37.8" class="st5 st6 st7"> </tspan><tspan x="92.9" y="37.8" class="st5 st6 st7">booking</tspan><tspan x="69.4" y="50.4" class="st5 st6 st7">Express</tspan><tspan x="99.1" y="50.4" class="st5 st6 st7"> </tspan><tspan x="101.4" y="50.4" class="st5 st6 st7">booking</tspan></text>
	<path class="st4" d="M450.9,259.8c71.7,0,130-58.3,130-129.9h-86.7c0,23.9-19.4,43.3-43.3,43.3s-43.3-19.4-43.3-43.3l-43.3,0.1
		l-43.3-0.1C321.1,201.5,379.4,259.8,450.9,259.8z"/>
	<rect x="171.4" y="60.6" class="st4" width="39.3" height="55.3"/>
	<text transform="matrix(1 0 0 1 525.947 189.7872)" class="st8 st9 st10">2</text>
	<circle class="st11" cx="147.7" cy="129.9" r="42.1"/>
	<rect x="195.3" y="90.4" class="st4" width="45.2" height="19.5"/>
	<text transform="matrix(1 0 0 1 511.597 176.1526)" class="st12"><tspan x="0" y="0" class="st5 st13 st14">EN ROUTE</tspan><tspan x="-12.1" y="10.8" class="st5 st13 st14">TO PROPERTY</tspan></text>
	<text transform="matrix(1 0 0 1 171.406 189.7872)" class="st8 st9 st10">4</text>
	<text transform="matrix(1 0 0 1 192.3502 176.1526)" class="st5 st13 st14">DEPARTURE</text>
	<rect x="130.7" y="141.4" class="st4" width="48" height="12.8"/>
	<text transform="matrix(1 0 0 1 190.1187 102.6545)" class="st5 st13 st14">BOOK A STAY</text>
	<path class="st4" d="M104.9,129.4c0,23.3,18.9,42.1,42.1,42.1v53.3c-52.4-0.1-94.8-42.6-94.8-95S94.6,34.9,147,34.9v52.3
		C123.7,87.2,104.9,106.1,104.9,129.4z"/>
	<text transform="matrix(1 0 0 1 39.6431 129.18)"><tspan x="0" y="0" class="st6 st7">View</tspan><tspan x="18.4" y="0" class="st6 st7"> </tspan><tspan x="20.6" y="0" class="st6 st7">GP</tspan><tspan x="31.4" y="0" class="st6 st7"> </tspan><tspan x="33.7" y="0" class="st6 st7">rewards</tspan><tspan x="0.4" y="12.6" class="st6 st7">Redeem</tspan><tspan x="31.9" y="12.6" class="st6 st7"> </tspan><tspan x="34.2" y="12.6" class="st6 st7">rewards</tspan><tspan x="4.6" y="25.2" class="st6 st7">Rebook</tspan><tspan x="33.7" y="25.2" class="st6 st7"> </tspan><tspan x="36" y="25.2" class="st6 st7">favorites</tspan></text>
	<rect x="114.4" y="104.4" class="st4" width="40.8" height="55.9"/>
	<text transform="matrix(1 0 0 1 175.8604 112.0011)" class="st8 st9 st10">1</text>
	<rect x="109.9" y="103.7" class="st4" width="36.7" height="63.1"/>
	<text transform="matrix(1 0 0 1 109.8679 157.4489)" class="st8 st9 st10">5</text>
	<text transform="matrix(1 0 0 1 132.2156 145.1693)" class="st5 st13 st14">BOOK AGAIN</text>
</g>
<g id="Layer_2">
	<rect x="525.9" y="60" class="st4" width="36.7" height="63.6"/>
	<text transform="matrix(1 0 0 1 525.947 113.6541)" class="st8 st9 st10">3</text>
	<text transform="matrix(1 0 0 1 525.0406 102.3749)" class="st12"><tspan x="0" y="0" class="st5 st13 st14">DURING</tspan><tspan x="-10.2" y="10.8" class="st5 st13 st14">YOUR STAY</tspan></text>
</g>
</svg>
