<?xml version="1.0" encoding="utf-8"?>
<!-- Generator: Adobe Illustrator 18.1.1, SVG Export Plug-In . SVG Version: 6.00 Build 0)  -->
<svg version="1.1" id="Layer_1" xmlns="http://www.w3.org/2000/svg" xmlns:xlink="http://www.w3.org/1999/xlink" x="0px" y="0px"
	 viewBox="27.8 290.1 539.7 139.9" enable-background="new 27.8 290.1 539.7 139.9" xml:space="preserve">
<g>
	<path fill="#488BBF" d="M152.6,426.9h-15.8c-5.5,0-11.3-4.8-11.3-11.3V290.1h26.1v136.8"/>
	<path fill="#488BBF" d="M184.1,377.5c0,14.7,10.3,27.1,25,27.1c14.7,0,25-11.3,25-27.1s-10.3-27.1-25-27.1
		C194.4,350.5,184.1,362.5,184.1,377.5 M260.6,426.9h-14.7c-5.5,0-11.3-4.8-11.3-11.3l0,0c-6.5,8.2-15.8,14.1-29.8,14.1
		c-27.1,0-47.3-22.3-47.3-52.1c0-29.8,20.6-52.1,47.3-52.1c13,0,23.3,5.5,29.8,13v-11.3h26.1V426.9z"/>
	<path fill="#488BBF" d="M293.8,426.9h-15.8c-5.5,0-11.3-4.8-11.3-11.3V290.1h26.1L293.8,426.9"/>
	<path fill="#488BBF" d="M324.7,377.5c0,15.8,11.3,27.1,26.1,27.1c14.7,0,26.1-11.3,26.1-27.1s-11.3-27.1-26.1-27.1
		C336,350.5,324.7,361.8,324.7,377.5 M404.6,377.5c0,29.8-22.3,52.1-53.1,52.1s-53.8-22.3-53.8-52.1c0-29.8,22.3-52.1,53.1-52.1
		S404.6,347.7,404.6,377.5z"/>
	<path fill="#488BBF" d="M567.4,364.5v62.4h-15.8c-5.5,0-11.3-4.8-11.3-11.3v-43.5c0-14.1-7.5-22.3-19.5-22.3
		c-11.3,0-21.3,7.5-21.3,22.3v53.8h-15.8c-5.5,0-11.3-4.8-11.3-11.3V371c0-14.1-7.5-22.3-19.5-22.3c-11.3,0-21.3,7.5-21.3,22.3v53.8
		h-13c-5.5,0-11.3-4.8-11.3-11.3v-87.1h26.1v11c7.5-10.3,17.8-14.1,28.8-14.1c14.1,0,26.1,6.5,32.6,16.8c7.5-12,20.6-16.8,33.6-16.8
		C551.7,326.5,567.4,341.2,567.4,364.5"/>
	<path fill="#488BBF" d="M114.5,348.7c-2.7,5.5-8.2,7.5-14.1,5.5c-7.5-2.7-17.8-5.5-27.8-5.5s-14.7,2.7-14.7,8.2
		c0,5.5,5.5,7.5,14.7,8.2l12,1.7c21.3,2.7,37.4,13,37.4,31.5c0,20.6-16.8,32.6-50.4,31.5c-13,0-29.8-3.8-43.9-12l9.3-20.6
		c6.5,3.8,19.5,10.3,34.3,11.3c14.7,0,22.3-1.7,22.3-9.3s-9.3-7.5-22.3-9.3l-5.5-1c-28.5-4.1-36-15.4-35-31.2
		c0-20.6,19.5-30.9,42.9-30.9c17.8,0,32.6,4.8,45.6,11.3L114.5,348.7"/>
</g>
</svg>
